<svg width="134" height="14" viewBox="0 0 134 14" fill="none" xmlns="http://www.w3.org/2000/svg">
<g clip-path="url(#clip0_1_112)">
<path d="M8.795 12.7152L7.31952 13.107L4.10429 8.22135L2.29848 8.17527L2.38656 12.8995L0.933105 13.0148V1.07732L3.75194 0.985141C5.02922 0.93905 6.02021 1.23864 6.7029 1.83782C7.38559 2.46004 7.73794 3.28967 7.73794 4.28062C7.73794 4.94893 7.51772 5.5942 7.0993 6.23947C6.68088 6.90778 6.08628 7.41477 5.29349 7.73741V7.78349L8.795 12.7152ZM2.36454 1.93L2.27645 7.36868L4.47867 7.2765C5.27146 7.04605 6.21841 6.07814 6.21841 4.64934C6.21841 3.05921 5.22742 2.02218 3.57576 1.97609L2.36454 1.93ZM15.6439 13.107C12.4727 13.107 9.9842 10.6411 9.9842 6.95386C9.9842 3.56621 12.803 0.800781 15.9742 0.800781C19.1674 0.800781 21.6559 3.28967 21.6559 6.97691C21.6339 10.3876 18.6829 13.107 15.6439 13.107ZM15.8641 12.116C18.3526 12.116 20.0924 10.1802 20.0924 7.09214C20.0924 4.00407 18.0663 1.79172 15.754 1.79172C13.2875 1.79172 11.5257 3.70448 11.5257 6.83864C11.5257 9.85757 13.5958 12.116 15.8641 12.116ZM27.8882 12.8995L26.4347 13.0148V7.34564L22.1404 1.19255L23.704 0.985141L27.3156 6.49296L31.0373 0.985141L32.2926 1.19255L27.8662 7.41477L27.8882 12.8995ZM42.1585 12.8765L40.639 13.0378L39.5159 9.88061L34.0324 9.99584L32.9092 13.0148L31.654 12.8765L36.5649 0.985141L37.2256 0.823824L42.1585 12.8765ZM36.719 3.03617L34.4508 8.93576L39.1635 9.02794L36.719 3.03617ZM47.2016 12.8995L44.1845 12.9917V1.10037L45.638 0.985141L45.5719 6.03205L45.616 11.9777L50.4608 11.7934L50.3507 12.9226L47.2016 12.8995ZM80.6972 12.8995L79.2438 13.0148V1.97609L74.8393 2.1374L74.9494 0.985141H79.8384L84.9695 0.869914L84.8594 2.09132L80.7192 1.93L80.6312 6.3086L80.6972 12.8995ZM94.7253 12.8765L93.2058 13.0378L92.0827 9.88061L86.5992 9.99584L85.476 13.0148L84.2208 12.8765L89.1317 0.985141L89.7924 0.823824L94.7253 12.8765ZM89.2859 3.03617L87.0176 8.93576L91.7303 9.02794L89.2859 3.03617ZM99.7684 12.8995L96.7514 12.9917V1.10037L98.2048 0.985141L98.1387 6.00901L98.1828 11.9547L103.028 11.7703L102.918 12.8995H99.7684ZM107.014 12.8995L105.098 12.9917V1.07732L107.828 0.985141H111.22L111.11 2.1374L106.551 1.95304L106.441 6.46992L110.405 6.35469L110.163 7.48391L106.419 7.36868L106.529 11.9547L111.594 11.7934L111.484 12.9226H107.014V12.8995ZM115.184 12.8995L113.885 13.0148L113.995 1.10037L115.052 0.985141L122.077 10.2032L121.945 1.10037L123.244 0.985141L123.09 12.8995L122.605 12.9917L115.03 3.35881L115.184 12.8995ZM128.97 13.0148C128.309 13.0148 127.648 12.8765 127.01 12.6C126.371 12.3234 125.887 11.9777 125.534 11.6321L126.239 10.8255C127.12 11.5168 128.067 12.0469 129.344 12.0469C130.753 12.0469 131.722 11.3786 131.722 10.065C131.722 9.37362 131.48 8.84358 131.04 8.52095C130.599 8.19831 129.983 7.87568 129.234 7.55304C127.67 6.90777 125.997 6.23947 125.997 4.05017C125.997 2.29872 127.516 0.892961 129.586 0.892961C130.665 0.892961 131.789 1.2156 132.449 1.72259L132.185 2.75963C131.524 2.437 130.247 1.95304 129.278 1.95304C128.199 1.95304 127.296 2.48308 127.296 3.63535C127.296 4.37279 127.538 4.90283 127.979 5.22547C128.419 5.57115 129.036 5.89378 129.762 6.21642C131.304 6.90778 133.022 7.46086 133.022 9.60407C133.044 11.8625 131.084 13.0148 128.97 13.0148Z" fill="#333333"/>
<path d="M56.8696 0.82312V12.968H68.4753V0.82312H56.8696ZM62.6614 12.461C59.7105 12.461 57.3321 9.97209 57.3321 6.88403C57.3321 3.79596 59.7105 1.30707 62.6614 1.30707C65.6124 1.30707 67.9908 3.79596 67.9908 6.88403C67.9908 9.97209 65.6124 12.461 62.6614 12.461ZM57.9928 7.87497C58.1029 8.42806 58.6314 9.76469 59.5343 9.44205C60.195 9.18855 60.239 8.54329 60.3711 7.80584C60.4813 7.11448 60.6574 5.8009 60.8777 5.52436C60.8997 5.50131 60.8777 5.47826 60.8556 5.47826C60.3271 5.50131 59.9747 6.74575 59.7765 7.32189C59.4022 8.4511 58.257 8.54329 58.0588 7.85193C58.0588 7.85193 57.9928 7.85192 57.9928 7.87497ZM67.242 5.91612C67.1099 5.61653 67.0218 5.50131 66.8897 5.22476C66.9998 4.90213 67.1319 4.46428 67.1099 4.27991C67.0218 3.49637 66.0088 4.326 66.229 5.33999C66.2951 5.61653 66.3612 5.82395 66.4052 6.00831C66.0969 6.65358 65.9648 6.53835 65.9868 6.30789C66.0088 6.14658 66.0308 5.82394 66.0308 5.82394C66.1189 5.20172 65.8106 5.15563 65.6124 5.2939C65.5023 5.36304 65.3481 5.59349 65.2821 5.73176L65.3481 5.43218L64.7976 5.66263L64.6214 6.60748C64.4012 7.13752 64.1589 7.2297 64.0048 7.20666C63.9607 7.18361 63.9167 7.16057 63.8727 7.13753C64.3792 6.67662 64.5553 6.28485 64.5113 6.00831C64.4673 5.70872 64.247 5.70872 64.0929 5.75481C63.6965 5.89308 63.3662 6.30789 63.2781 6.88403C63.256 7.06839 63.256 7.25275 63.3001 7.39103C62.9477 7.96716 62.9257 7.64452 62.9698 7.41406C63.0799 6.88402 63.4322 4.69473 63.4322 4.69473L62.8817 4.92518C62.8817 4.92518 62.5513 6.83794 62.4192 7.57538C62.1549 8.2437 62.0889 7.9902 62.1329 7.75974C62.221 7.2297 62.3531 6.53835 62.3531 6.53835L61.8246 6.74575C61.8246 6.74575 61.7806 6.90707 61.7365 7.18361C61.6705 6.9762 61.5383 6.83794 61.3621 6.81489C61.0318 6.7688 60.6795 7.2297 60.5693 7.78279C60.4592 8.35892 60.6354 8.86592 60.9657 8.88897C61.208 8.91201 61.4502 8.7046 61.6044 8.38197C61.6925 8.58938 61.9127 8.56633 62.0448 8.47415C62.177 8.38197 62.3091 8.15152 62.3972 7.96716C62.4412 8.2437 62.6614 8.2437 62.8156 8.15152C63.0578 8.01324 63.2781 7.69061 63.3882 7.55234C63.4763 7.71365 63.6304 7.80584 63.8066 7.78279C64.0488 7.75975 64.3351 7.43711 64.5553 7.06839L64.4673 7.50625L65.0178 7.2758L65.216 6.21571C65.4803 5.5474 65.5684 5.77785 65.5463 5.98526C65.5463 5.98526 65.5243 6.16963 65.4803 6.46921C65.4142 7.09144 65.6785 7.11448 65.8767 6.99925C66.163 6.81489 66.3391 6.46921 66.4933 6.14657C66.6034 6.42312 66.7355 6.65357 66.8456 6.99925C67.6384 9.32683 64.6434 9.09637 63.4542 9.14246C62.3531 9.18855 62.243 10.1795 62.1329 10.94C66.229 10.9861 68.0789 7.82888 67.242 5.91612ZM61.6484 7.69061C61.6264 7.96715 61.4502 8.26674 61.2961 8.26674C61.1419 8.26674 61.0318 8.03629 61.0759 7.71366C61.1199 7.43711 61.252 7.18361 61.4062 7.18361C61.5603 7.18361 61.6704 7.41407 61.6484 7.69061ZM63.8066 6.95316C63.7846 6.88402 63.7846 6.81489 63.7846 6.72271C63.8066 6.44616 63.9387 6.14658 64.1149 6.10049C64.181 6.07744 64.247 6.10049 64.247 6.21571C64.247 6.46921 64.0048 6.7688 63.8066 6.95316ZM66.8016 5.01736C66.7796 4.99431 66.7796 4.97127 66.7796 4.94823C66.4492 4.1186 66.8897 4.00337 66.9337 4.34905C66.9337 4.53341 66.8897 4.78691 66.8016 5.01736ZM63.234 2.6437C63.168 3.17374 63.1239 4.27991 62.1329 4.44123C60.5033 4.71777 58.3231 5.45522 57.9707 7.11448C57.9707 7.13752 57.9047 7.13753 57.9047 7.13753C57.8606 4.53341 60.0849 2.6437 63.234 2.6437Z" fill="#FF0000"/>
</g>
<defs>
<clipPath id="clip0_1_112">
<rect width="132.353" height="12.4444" fill="white" transform="translate(0.823486 0.777832)"/>
</clipPath>
</defs>
</svg>
