<svg width="124" height="16" viewBox="0 0 124 16" fill="none" xmlns="http://www.w3.org/2000/svg">
<g clip-path="url(#clip0_1_105)">
<path fill-rule="evenodd" clip-rule="evenodd" d="M74.7014 15.3625H73.3733V0.0449104H74.7014V15.3625ZM106.255 0.0449104V12.8845L94.3949 0.0449104V0H93.0228V15.3625H94.3949V2.38749L106.255 15.3625V15.3169V15.3625H107.627V0.0449104H106.255ZM90.0131 0.0449104V0.0898207L75.94 15.3169H77.9752L90.0131 1.93707V10.8114H84.0832V12.2082H90.0131V15.3169H91.3399V0.0449104H90.0131Z" fill="black"/>
<path fill-rule="evenodd" clip-rule="evenodd" d="M67.7091 8.37833H67.7978C70.0103 8.37833 71.824 6.35144 71.824 4.09935C71.824 1.93707 70.1424 0.13473 68.062 0.0449104V0H67.8412H56.9551V15.3625H58.3272V1.39683H67.9739C68.6253 1.4833 69.2229 1.80556 69.6548 2.30319C70.0866 2.80083 70.3231 3.43968 70.3199 4.10001C70.3199 5.54174 69.2133 6.93792 67.7531 7.0284H65.8947V8.55995H65.9381L69.8769 15.3176H72.0461L67.7091 8.37833ZM48.1923 0L40.8022 0.0449104V15.3618H51.9097C54.0336 15.2264 55.6711 13.4241 55.6711 11.2611C55.6711 9.77516 54.9187 8.51372 53.7681 7.79252C54.918 7.07264 55.6711 5.58599 55.6711 4.09935C55.6711 1.93707 54.0335 0.17964 51.9537 0.0449104V0H48.1923ZM48.1923 13.965H42.1737V1.39683H51.865C52.5163 1.48332 53.1139 1.8056 53.5456 2.30325C53.9774 2.8009 54.2137 3.43974 54.2103 4.10001C54.2103 5.58665 53.0157 6.98282 51.5549 7.0284V8.55863C53.015 8.55863 54.2103 9.77516 54.2103 11.2611C54.2103 12.658 53.1484 13.784 51.821 13.965H48.1923Z" fill="black"/>
<path fill-rule="evenodd" clip-rule="evenodd" d="M0.529297 0V15.3169H1.90138L13.9387 2.29766V10.8114H8.09681V12.2082H13.9387V15.3169H15.2668V0H0.529297ZM1.90138 13.2444V8.01904H6.76941L1.90138 13.2444ZM1.90138 6.62221V1.39617H12.9648L8.09681 6.62221H1.90138Z" fill="#00ACEC"/>
<path fill-rule="evenodd" clip-rule="evenodd" d="M115.947 0C111.787 0 108.379 3.42372 108.379 7.65911C108.379 11.8925 111.787 15.3625 115.947 15.3625C120.107 15.3625 123.47 11.8925 123.47 7.65911C123.47 3.42372 120.107 0 115.947 0ZM115.947 13.7398C112.672 13.7398 110.061 11.0373 110.061 7.74893C110.061 4.41504 112.672 1.75743 115.947 1.75743C119.177 1.75743 121.833 4.41504 121.833 7.74893C121.833 11.0373 119.177 13.7398 115.947 13.7398Z" fill="black"/>
<path fill-rule="evenodd" clip-rule="evenodd" d="M35.0929 1.48593V0.0890998H20.2673V15.3618H21.5954V8.3327H30.3293L23.896 15.3162H25.9318L37.9251 1.93635V10.8107H32.0392V12.2075H37.9251L38.0131 15.4067H39.3852L39.2972 0.0441895H37.9251V0.0890998L31.616 6.93653H21.5954V1.48593H35.0929Z" fill="black"/>
</g>
<defs>
<clipPath id="clip0_1_105">
<rect width="122.941" height="15.4074" fill="white" transform="translate(0.529297)"/>
</clipPath>
</defs>
</svg>
